<svg width="142" height="17" viewBox="0 0 142 17" fill="none" xmlns="http://www.w3.org/2000/svg">
<g filter="url(#filter0_d_6_4)">
<path d="M12.634 8.676C12.634 8.892 12.53 9 12.322 9H11.362C11.154 9 11.05 8.892 11.05 8.676V3.42L8.90203 5.976C8.83803 6.048 8.75803 6.084 8.66203 6.084C8.56603 6.084 8.48203 6.044 8.41003 5.964L6.27403 3.42V8.676C6.27403 8.892 6.17003 9 5.96203 9H5.00203C4.79403 9 4.69003 8.892 4.69003 8.676V1.368C4.69003 1.152 4.79403 1.044 5.00203 1.044H6.13003C6.22603 1.044 6.31003 1.088 6.38203 1.176L8.66203 3.888L10.942 1.176C11.014 1.088 11.098 1.044 11.194 1.044H12.322C12.53 1.044 12.634 1.152 12.634 1.368V8.676ZM23.7903 6.66C23.7903 7.308 23.5583 7.86 23.0943 8.316C22.6303 8.772 22.0703 9 21.4143 9H18.2223C17.5663 9 17.0063 8.772 16.5423 8.316C16.0783 7.86 15.8463 7.308 15.8463 6.66V3.372C15.8463 2.732 16.0783 2.184 16.5423 1.728C17.0063 1.272 17.5663 1.044 18.2223 1.044H21.4143C22.0703 1.044 22.6303 1.272 23.0943 1.728C23.5583 2.184 23.7903 2.732 23.7903 3.372V6.66ZM22.2063 6.66V3.396C22.2063 3.14 22.1263 2.924 21.9663 2.748C21.8143 2.572 21.6303 2.484 21.4143 2.484H18.2223C18.0063 2.484 17.8183 2.572 17.6583 2.748C17.5063 2.924 17.4303 3.14 17.4303 3.396V6.66C17.4303 6.908 17.5063 7.124 17.6583 7.308C17.8183 7.484 18.0063 7.572 18.2223 7.572H21.4143C21.6303 7.572 21.8143 7.484 21.9663 7.308C22.1263 7.124 22.2063 6.908 22.2063 6.66ZM34.7545 6.756C34.7545 7.396 34.5225 7.932 34.0585 8.364C33.6025 8.788 33.0425 9 32.3785 9H29.2105C28.5465 9 27.9825 8.788 27.5185 8.364C27.0625 7.932 26.8345 7.396 26.8345 6.756V5.04C26.8345 4.4 27.0625 3.868 27.5185 3.444C27.9825 3.012 28.5465 2.796 29.2105 2.796H33.1705V1.344C33.1705 1.168 33.3025 1.08 33.5665 1.08H34.4905C34.6665 1.08 34.7545 1.168 34.7545 1.344V6.756ZM33.1705 6.756V4.512C33.1705 4.336 33.0825 4.248 32.9065 4.248H29.2105C28.9865 4.248 28.7985 4.32 28.6465 4.464C28.4945 4.6 28.4185 4.792 28.4185 5.04V6.756C28.4185 7.004 28.4945 7.2 28.6465 7.344C28.7985 7.48 28.9865 7.548 29.2105 7.548H32.3785C32.6025 7.548 32.7905 7.48 32.9425 7.344C33.0945 7.2 33.1705 7.004 33.1705 6.756ZM45.9036 3.396C45.9036 4.044 45.6676 4.596 45.1956 5.052C44.7316 5.508 44.1716 5.736 43.5156 5.736H39.8556C39.6476 5.736 39.5436 5.844 39.5436 6.06V6.66C39.5436 6.908 39.6196 7.124 39.7716 7.308C39.9236 7.484 40.1116 7.572 40.3356 7.572H43.9956C44.2036 7.572 44.3076 7.676 44.3076 7.884V8.676C44.3076 8.892 44.2036 9 43.9956 9H40.3356C39.6716 9 39.1076 8.772 38.6436 8.316C38.1796 7.86 37.9476 7.308 37.9476 6.66V3.396C37.9476 2.748 38.1796 2.196 38.6436 1.74C39.1076 1.276 39.6716 1.044 40.3356 1.044H43.5156C44.1716 1.044 44.7316 1.276 45.1956 1.74C45.6676 2.196 45.9036 2.748 45.9036 3.396ZM44.3076 3.396C44.3076 3.14 44.2276 2.924 44.0676 2.748C43.9156 2.572 43.7316 2.484 43.5156 2.484H40.3356C40.1116 2.484 39.9236 2.572 39.7716 2.748C39.6196 2.924 39.5436 3.14 39.5436 3.396V3.996C39.5436 4.204 39.6476 4.308 39.8556 4.308H43.5156C43.7316 4.308 43.9156 4.22 44.0676 4.044C44.2276 3.86 44.3076 3.644 44.3076 3.396ZM56.6614 4.704C56.6614 4.92 56.5534 5.028 56.3374 5.028H55.3894C55.1734 5.028 55.0654 4.92 55.0654 4.704V3.396C55.0654 3.14 54.9854 2.924 54.8254 2.748C54.6734 2.572 54.4894 2.484 54.2734 2.484H51.0934C50.8694 2.484 50.6814 2.572 50.5294 2.748C50.3774 2.924 50.3014 3.14 50.3014 3.396V8.676C50.3014 8.892 50.1934 9 49.9774 9H49.0294C48.8134 9 48.7054 8.892 48.7054 8.676V3.396C48.7054 2.748 48.9374 2.196 49.4014 1.74C49.8654 1.276 50.4294 1.044 51.0934 1.044H54.2734C54.9294 1.044 55.4894 1.276 55.9534 1.74C56.4254 2.196 56.6614 2.748 56.6614 3.396V4.704ZM67.0559 8.676C67.0559 8.892 66.9519 9 66.7439 9H65.7839C65.5759 9 65.4719 8.892 65.4719 8.676V3.396C65.4719 3.14 65.3919 2.924 65.2319 2.748C65.0799 2.572 64.8959 2.484 64.6799 2.484H61.4879C61.2719 2.484 61.0839 2.572 60.9239 2.748C60.7719 2.924 60.6959 3.14 60.6959 3.396V8.676C60.6959 8.892 60.5919 9 60.3839 9H59.4239C59.2159 9 59.1119 8.892 59.1119 8.676V3.372C59.1119 2.732 59.3439 2.184 59.8079 1.728C60.2719 1.272 60.8319 1.044 61.4879 1.044H64.6799C65.3359 1.044 65.8959 1.272 66.3599 1.728C66.8239 2.184 67.0559 2.732 67.0559 3.372V8.676ZM82.0559 8.676C82.0559 8.892 81.9519 9 81.7439 9H80.7839C80.5759 9 80.4719 8.892 80.4719 8.676V3.42L78.3239 5.976C78.2599 6.048 78.1799 6.084 78.0839 6.084C77.9879 6.084 77.9039 6.044 77.8319 5.964L75.6959 3.42V8.676C75.6959 8.892 75.5919 9 75.3839 9H74.4239C74.2159 9 74.1119 8.892 74.1119 8.676V1.368C74.1119 1.152 74.2159 1.044 74.4239 1.044H75.5519C75.6479 1.044 75.7319 1.088 75.8039 1.176L78.0839 3.888L80.3639 1.176C80.4359 1.088 80.5199 1.044 80.6159 1.044H81.7439C81.9519 1.044 82.0559 1.152 82.0559 1.368V8.676ZM93.2122 6.672C93.2122 7.312 92.9802 7.86 92.5162 8.316C92.0522 8.772 91.4922 9 90.8362 9H87.6442C86.9882 9 86.4282 8.772 85.9642 8.316C85.5002 7.86 85.2682 7.312 85.2682 6.672V1.368C85.2682 1.152 85.3722 1.044 85.5802 1.044H86.5402C86.7482 1.044 86.8522 1.152 86.8522 1.368V6.66C86.8522 6.908 86.9282 7.124 87.0802 7.308C87.2402 7.484 87.4282 7.572 87.6442 7.572H90.8362C91.0522 7.572 91.2362 7.484 91.3882 7.308C91.5482 7.124 91.6282 6.908 91.6282 6.66V1.368C91.6282 1.152 91.7322 1.044 91.9402 1.044H92.9002C93.1082 1.044 93.2122 1.152 93.2122 1.368V6.672ZM104.368 4.704C104.368 4.92 104.26 5.028 104.044 5.028H103.096C102.88 5.028 102.772 4.92 102.772 4.704V3.396C102.772 3.14 102.692 2.924 102.532 2.748C102.38 2.572 102.196 2.484 101.98 2.484H98.8004C98.5764 2.484 98.3884 2.572 98.2364 2.748C98.0844 2.924 98.0084 3.14 98.0084 3.396V8.676C98.0084 8.892 97.9004 9 97.6844 9H96.7364C96.5204 9 96.4124 8.892 96.4124 8.676V3.396C96.4124 2.748 96.6444 2.196 97.1084 1.74C97.5724 1.276 98.1364 1.044 98.8004 1.044H101.98C102.636 1.044 103.196 1.276 103.66 1.74C104.132 2.196 104.368 2.748 104.368 3.396V4.704ZM114.763 8.676C114.763 8.892 114.659 9 114.451 9H113.491C113.283 9 113.179 8.892 113.179 8.676V3.24C113.179 2.984 113.099 2.768 112.939 2.592C112.787 2.408 112.603 2.316 112.387 2.316C112.163 2.316 111.971 2.408 111.811 2.592C111.659 2.768 111.583 2.984 111.583 3.24V5.496C111.583 5.712 111.479 5.82 111.271 5.82H110.311C110.103 5.82 109.999 5.712 109.999 5.496V3.24C109.999 2.984 109.919 2.768 109.759 2.592C109.607 2.408 109.419 2.316 109.195 2.316C108.979 2.316 108.791 2.408 108.631 2.592C108.479 2.768 108.403 2.984 108.403 3.24V8.676C108.403 8.892 108.299 9 108.091 9H107.131C106.923 9 106.819 8.892 106.819 8.676V3.24C106.819 2.592 107.051 2.04 107.515 1.584C107.979 1.12 108.539 0.887999 109.195 0.887999C109.803 0.887999 110.335 1.088 110.791 1.488C111.247 1.088 111.779 0.887999 112.387 0.887999C113.043 0.887999 113.603 1.12 114.067 1.584C114.531 2.04 114.763 2.592 114.763 3.24V8.676ZM125.919 6.672C125.919 7.312 125.687 7.86 125.223 8.316C124.759 8.772 124.199 9 123.543 9H120.351C119.695 9 119.135 8.772 118.671 8.316C118.207 7.86 117.975 7.312 117.975 6.672V1.368C117.975 1.152 118.079 1.044 118.287 1.044H119.247C119.455 1.044 119.559 1.152 119.559 1.368V6.66C119.559 6.908 119.635 7.124 119.787 7.308C119.947 7.484 120.135 7.572 120.351 7.572H123.543C123.759 7.572 123.943 7.484 124.095 7.308C124.255 7.124 124.335 6.908 124.335 6.66V1.368C124.335 1.152 124.439 1.044 124.647 1.044H125.607C125.815 1.044 125.919 1.152 125.919 1.368V6.672ZM137.075 4.704C137.075 4.92 136.967 5.028 136.751 5.028H135.803C135.587 5.028 135.479 4.92 135.479 4.704V3.396C135.479 3.14 135.399 2.924 135.239 2.748C135.087 2.572 134.903 2.484 134.687 2.484H131.507C131.283 2.484 131.095 2.572 130.943 2.748C130.791 2.924 130.715 3.14 130.715 3.396V8.676C130.715 8.892 130.607 9 130.391 9H129.443C129.227 9 129.119 8.892 129.119 8.676V3.396C129.119 2.748 129.351 2.196 129.815 1.74C130.279 1.276 130.843 1.044 131.507 1.044H134.687C135.343 1.044 135.903 1.276 136.367 1.74C136.839 2.196 137.075 2.748 137.075 3.396V4.704Z" fill="#736A3D"/>
</g>
<defs>
<filter id="filter0_d_6_4" x="0.690033" y="0.888" width="140.385" height="16.112" filterUnits="userSpaceOnUse" color-interpolation-filters="sRGB">
<feFlood flood-opacity="0" result="BackgroundImageFix"/>
<feColorMatrix in="SourceAlpha" type="matrix" values="0 0 0 0 0 0 0 0 0 0 0 0 0 0 0 0 0 0 127 0" result="hardAlpha"/>
<feOffset dy="4"/>
<feGaussianBlur stdDeviation="2"/>
<feComposite in2="hardAlpha" operator="out"/>
<feColorMatrix type="matrix" values="0 0 0 0 0 0 0 0 0 0 0 0 0 0 0 0 0 0 0.25 0"/>
<feBlend mode="normal" in2="BackgroundImageFix" result="effect1_dropShadow_6_4"/>
<feBlend mode="normal" in="SourceGraphic" in2="effect1_dropShadow_6_4" result="shape"/>
</filter>
</defs>
</svg>
