<svg width="831" height="120" viewBox="0 0 831 120" fill="none" xmlns="http://www.w3.org/2000/svg">
<path d="M0 8C0 3.58172 3.58172 0 8 0H823C827.418 0 831 3.58172 831 8V112C831 116.418 827.418 120 823 120H8.00002C3.58175 120 0 116.418 0 112V8Z" fill="#F2C14E"/>
<path d="M101.758 81H96.6378C95.8271 81 95.1231 80.7227 94.5258 80.168C93.9711 79.6133 93.6938 78.9307 93.6938 78.12V55.528L84.5418 66.152C83.9871 66.8347 83.2404 67.176 82.3018 67.176C81.3631 67.176 80.5951 66.8133 79.9978 66.088L70.7818 55.528V78.12C70.7818 78.9307 70.4831 79.6133 69.8858 80.168C69.3311 80.7227 68.6271 81 67.7738 81H62.7818C61.9284 81 61.2031 80.7227 60.6058 80.168C60.0511 79.6133 59.7738 78.9307 59.7738 78.12V41.512C59.7738 40.7013 60.0511 40.0187 60.6058 39.464C61.2031 38.9093 61.9284 38.632 62.7818 38.632H68.6698C69.6084 38.632 70.3978 38.9947 71.0378 39.72L82.3018 52.648L93.5018 39.72C94.0991 38.9947 94.8671 38.632 95.8058 38.632H101.758C102.568 38.632 103.251 38.9093 103.806 39.464C104.403 40.0187 104.702 40.7013 104.702 41.512V78.12C104.702 78.9307 104.403 79.6133 103.806 80.168C103.251 80.7227 102.568 81 101.758 81ZM151.062 81H134.102C130.22 81 126.913 79.6987 124.182 77.096C121.452 74.4933 120.086 71.336 120.086 67.624V51.88C120.086 48.2107 121.452 45.096 124.182 42.536C126.956 39.9333 130.262 38.632 134.102 38.632H151.062C154.902 38.632 158.188 39.9333 160.918 42.536C163.692 45.096 165.078 48.2107 165.078 51.88V67.624C165.078 71.336 163.692 74.4933 160.918 77.096C158.188 79.6987 154.902 81 151.062 81ZM154.006 52.008C154.006 50.984 153.708 50.152 153.11 49.512C152.513 48.8293 151.83 48.488 151.062 48.488H134.102C133.334 48.488 132.652 48.8293 132.054 49.512C131.457 50.152 131.158 50.984 131.158 52.008V67.624C131.158 68.648 131.457 69.5013 132.054 70.184C132.652 70.824 133.334 71.144 134.102 71.144H151.062C151.83 71.144 152.513 70.824 153.11 70.184C153.708 69.5013 154.006 68.648 154.006 67.624V52.008ZM215.661 38.632H220.269C221.165 38.632 221.912 38.952 222.509 39.592C223.149 40.1893 223.469 40.936 223.469 41.832V68.136C223.469 71.848 222.104 74.92 219.373 77.352C216.685 79.784 213.4 81 209.517 81H192.493C188.611 81 185.304 79.784 182.573 77.352C179.885 74.92 178.541 71.848 178.541 68.136V60.008C178.541 56.296 179.885 53.224 182.573 50.792C185.304 48.36 188.611 47.144 192.493 47.144H212.461V41.832C212.461 40.936 212.76 40.1893 213.357 39.592C213.997 38.952 214.765 38.632 215.661 38.632ZM212.461 57H192.493C190.531 57 189.549 57.96 189.549 59.88V68.264C189.549 70.1413 190.531 71.08 192.493 71.08H209.517C211.48 71.08 212.461 70.1413 212.461 68.264V57ZM269.812 65.384H249.844L249.908 67.624C249.908 68.648 250.207 69.5013 250.804 70.184C251.402 70.824 252.084 71.144 252.852 71.144H272.372C273.183 71.144 273.866 71.4213 274.42 71.976C275.018 72.5307 275.316 73.2133 275.316 74.024V78.12C275.316 78.9307 275.018 79.6133 274.42 80.168C273.866 80.7227 273.183 81 272.372 81H252.852C248.97 81 245.663 79.6987 242.932 77.096C240.202 74.4933 238.836 71.336 238.836 67.624V52.008C238.836 48.296 240.202 45.1387 242.932 42.536C245.663 39.9333 248.97 38.632 252.852 38.632H269.812C273.652 38.632 276.938 39.9333 279.668 42.536C282.442 45.1387 283.828 48.296 283.828 52.008C283.828 55.72 282.442 58.8773 279.668 61.48C276.938 64.0827 273.652 65.384 269.812 65.384ZM269.812 48.488H252.852C252.084 48.488 251.402 48.8293 250.804 49.512C250.207 50.152 249.908 50.984 249.908 52.008L249.844 55.464H269.812C270.58 55.464 271.263 55.144 271.86 54.504C272.458 53.864 272.756 53.032 272.756 52.008C272.756 50.984 272.458 50.152 271.86 49.512C271.263 48.8293 270.58 48.488 269.812 48.488ZM338.633 61.672H333.577C332.723 61.672 331.998 61.3947 331.401 60.84C330.846 60.2853 330.569 59.6027 330.569 58.792V52.008C330.569 50.984 330.27 50.152 329.673 49.512C329.075 48.8293 328.393 48.488 327.625 48.488H310.665C309.897 48.488 309.214 48.8293 308.617 49.512C308.019 50.152 307.721 50.984 307.721 52.008V78.12C307.721 78.9307 307.422 79.6133 306.825 80.168C306.227 80.7227 305.523 81 304.713 81H299.657C298.803 81 298.078 80.7227 297.481 80.168C296.926 79.6133 296.649 78.9307 296.649 78.12V52.008C296.649 48.296 298.014 45.1387 300.745 42.536C303.475 39.9333 306.782 38.632 310.665 38.632H327.625C331.465 38.632 334.75 39.9333 337.481 42.536C340.254 45.1387 341.641 48.296 341.641 52.008V58.792C341.641 59.6027 341.342 60.2853 340.745 60.84C340.147 61.3947 339.443 61.672 338.633 61.672ZM394.508 81H389.452C388.598 81 387.873 80.7227 387.276 80.168C386.721 79.6133 386.444 78.9307 386.444 78.12V52.008C386.444 50.984 386.145 50.152 385.548 49.512C384.95 48.8293 384.268 48.488 383.5 48.488H366.54C365.772 48.488 365.089 48.8293 364.492 49.512C363.894 50.152 363.596 50.984 363.596 52.008V78.12C363.596 78.9307 363.297 79.6133 362.7 80.168C362.102 80.7227 361.398 81 360.588 81H355.532C354.678 81 353.953 80.7227 353.356 80.168C352.801 79.6133 352.524 78.9307 352.524 78.12V52.008C352.524 48.3387 353.889 45.2027 356.62 42.6C359.393 39.9547 362.7 38.632 366.54 38.632H383.5C387.34 38.632 390.625 39.9333 393.356 42.536C396.129 45.096 397.516 48.2107 397.516 51.88V78.12C397.516 78.9307 397.217 79.6133 396.62 80.168C396.022 80.7227 395.318 81 394.508 81ZM475.383 81H470.263C469.452 81 468.748 80.7227 468.151 80.168C467.596 79.6133 467.319 78.9307 467.319 78.12V55.528L458.167 66.152C457.612 66.8347 456.865 67.176 455.927 67.176C454.988 67.176 454.22 66.8133 453.623 66.088L444.407 55.528V78.12C444.407 78.9307 444.108 79.6133 443.511 80.168C442.956 80.7227 442.252 81 441.399 81H436.407C435.553 81 434.828 80.7227 434.231 80.168C433.676 79.6133 433.399 78.9307 433.399 78.12V41.512C433.399 40.7013 433.676 40.0187 434.231 39.464C434.828 38.9093 435.553 38.632 436.407 38.632H442.295C443.233 38.632 444.023 38.9947 444.663 39.72L455.927 52.648L467.127 39.72C467.724 38.9947 468.492 38.632 469.431 38.632H475.383C476.193 38.632 476.876 38.9093 477.431 39.464C478.028 40.0187 478.327 40.7013 478.327 41.512V78.12C478.327 78.9307 478.028 79.6133 477.431 80.168C476.876 80.7227 476.193 81 475.383 81ZM524.687 81H507.727C503.887 81 500.581 79.72 497.807 77.16C495.077 74.5573 493.711 71.4213 493.711 67.752V41.512C493.711 40.7013 493.989 40.0187 494.543 39.464C495.141 38.9093 495.866 38.632 496.719 38.632H501.775C502.586 38.632 503.29 38.9093 503.887 39.464C504.485 40.0187 504.783 40.7013 504.783 41.512V67.624C504.783 68.648 505.082 69.5013 505.679 70.184C506.277 70.824 506.959 71.144 507.727 71.144H524.687C525.498 71.144 526.202 70.824 526.799 70.184C527.397 69.5013 527.695 68.648 527.695 67.624V41.512C527.695 40.7013 527.973 40.0187 528.527 39.464C529.125 38.9093 529.829 38.632 530.639 38.632H535.759C536.57 38.632 537.253 38.9093 537.807 39.464C538.405 40.0187 538.703 40.7013 538.703 41.512V67.752C538.703 71.4213 537.338 74.5573 534.607 77.16C531.877 79.72 528.57 81 524.687 81ZM596.07 61.672H591.014C590.161 61.672 589.436 61.3947 588.838 60.84C588.284 60.2853 588.006 59.6027 588.006 58.792V52.008C588.006 50.984 587.708 50.152 587.11 49.512C586.513 48.8293 585.83 48.488 585.062 48.488H568.102C567.334 48.488 566.652 48.8293 566.054 49.512C565.457 50.152 565.158 50.984 565.158 52.008V78.12C565.158 78.9307 564.86 79.6133 564.262 80.168C563.665 80.7227 562.961 81 562.15 81H557.094C556.241 81 555.516 80.7227 554.918 80.168C554.364 79.6133 554.086 78.9307 554.086 78.12V52.008C554.086 48.296 555.452 45.1387 558.182 42.536C560.913 39.9333 564.22 38.632 568.102 38.632H585.062C588.902 38.632 592.188 39.9333 594.918 42.536C597.692 45.1387 599.078 48.296 599.078 52.008V58.792C599.078 59.6027 598.78 60.2853 598.182 60.84C597.585 61.3947 596.881 61.672 596.07 61.672ZM651.945 81H646.889C646.036 81 645.311 80.7227 644.713 80.168C644.159 79.6133 643.881 78.9307 643.881 78.12V51.176C643.881 50.152 643.583 49.32 642.985 48.68C642.388 48.04 641.705 47.72 640.937 47.72C640.169 47.72 639.487 48.04 638.889 48.68C638.292 49.32 637.993 50.152 637.993 51.176V61.8C637.993 62.6107 637.695 63.2933 637.097 63.848C636.5 64.4027 635.796 64.68 634.985 64.68H629.929C629.076 64.68 628.351 64.4027 627.753 63.848C627.199 63.2933 626.921 62.6107 626.921 61.8V51.176C626.921 50.152 626.623 49.32 626.025 48.68C625.428 48.04 624.745 47.72 623.977 47.72C623.209 47.72 622.527 48.04 621.929 48.68C621.332 49.32 621.033 50.152 621.033 51.176V78.12C621.033 78.9307 620.735 79.6133 620.137 80.168C619.54 80.7227 618.836 81 618.025 81H612.969C612.116 81 611.391 80.7227 610.793 80.168C610.239 79.6133 609.961 78.9307 609.961 78.12V51.176C609.961 47.464 611.327 44.3067 614.057 41.704C616.788 39.1013 620.095 37.8 623.977 37.8C627.135 37.8 629.951 38.7173 632.425 40.552C634.943 38.7173 637.78 37.8 640.937 37.8C644.777 37.8 648.063 39.1013 650.793 41.704C653.567 44.3067 654.953 47.464 654.953 51.176V78.12C654.953 78.9307 654.655 79.6133 654.057 80.168C653.46 80.7227 652.756 81 651.945 81ZM701.312 81H684.352C680.512 81 677.206 79.72 674.432 77.16C671.702 74.5573 670.336 71.4213 670.336 67.752V41.512C670.336 40.7013 670.614 40.0187 671.168 39.464C671.766 38.9093 672.491 38.632 673.344 38.632H678.4C679.211 38.632 679.915 38.9093 680.512 39.464C681.11 40.0187 681.408 40.7013 681.408 41.512V67.624C681.408 68.648 681.707 69.5013 682.304 70.184C682.902 70.824 683.584 71.144 684.352 71.144H701.312C702.123 71.144 702.827 70.824 703.424 70.184C704.022 69.5013 704.32 68.648 704.32 67.624V41.512C704.32 40.7013 704.598 40.0187 705.152 39.464C705.75 38.9093 706.454 38.632 707.264 38.632H712.384C713.195 38.632 713.878 38.9093 714.432 39.464C715.03 40.0187 715.328 40.7013 715.328 41.512V67.752C715.328 71.4213 713.963 74.5573 711.232 77.16C708.502 79.72 705.195 81 701.312 81ZM772.695 61.672H767.639C766.786 61.672 766.061 61.3947 765.463 60.84C764.909 60.2853 764.631 59.6027 764.631 58.792V52.008C764.631 50.984 764.333 50.152 763.735 49.512C763.138 48.8293 762.455 48.488 761.687 48.488H744.727C743.959 48.488 743.277 48.8293 742.679 49.512C742.082 50.152 741.783 50.984 741.783 52.008V78.12C741.783 78.9307 741.485 79.6133 740.887 80.168C740.29 80.7227 739.586 81 738.775 81H733.719C732.866 81 732.141 80.7227 731.543 80.168C730.989 79.6133 730.711 78.9307 730.711 78.12V52.008C730.711 48.296 732.077 45.1387 734.807 42.536C737.538 39.9333 740.845 38.632 744.727 38.632H761.687C765.527 38.632 768.813 39.9333 771.543 42.536C774.317 45.1387 775.703 48.296 775.703 52.008V58.792C775.703 59.6027 775.405 60.2853 774.807 60.84C774.21 61.3947 773.506 61.672 772.695 61.672Z" fill="#736A3D"/>
</svg>
