<svg width="200" height="52" viewBox="0 0 200 52" fill="none" xmlns="http://www.w3.org/2000/svg">
<path d="M24.354 24H21.474C21.018 24 20.622 23.844 20.286 23.532C19.974 23.22 19.818 22.836 19.818 22.38V9.672L14.67 15.648C14.358 16.032 13.938 16.224 13.41 16.224C12.882 16.224 12.45 16.02 12.114 15.612L6.92997 9.672V22.38C6.92997 22.836 6.76197 23.22 6.42597 23.532C6.11397 23.844 5.71797 24 5.23797 24H2.42997C1.94997 24 1.54197 23.844 1.20597 23.532C0.893969 23.22 0.737969 22.836 0.737969 22.38V1.788C0.737969 1.332 0.893969 0.947999 1.20597 0.635998C1.54197 0.323998 1.94997 0.167998 2.42997 0.167998H5.74197C6.26997 0.167998 6.71397 0.371998 7.07397 0.779999L13.41 8.052L19.71 0.779999C20.046 0.371998 20.478 0.167998 21.006 0.167998H24.354C24.81 0.167998 25.194 0.323998 25.506 0.635998C25.842 0.947999 26.01 1.332 26.01 1.788V22.38C26.01 22.836 25.842 23.22 25.506 23.532C25.194 23.844 24.81 24 24.354 24ZM52.0878 24H42.5478C40.3638 24 38.5038 23.268 36.9678 21.804C35.4318 20.34 34.6638 18.564 34.6638 16.476V7.62C34.6638 5.556 35.4318 3.804 36.9678 2.364C38.5278 0.899998 40.3878 0.167998 42.5478 0.167998H52.0878C54.2478 0.167998 56.0958 0.899998 57.6318 2.364C59.1918 3.804 59.9718 5.556 59.9718 7.62V16.476C59.9718 18.564 59.1918 20.34 57.6318 21.804C56.0958 23.268 54.2478 24 52.0878 24ZM53.7438 7.692C53.7438 7.116 53.5758 6.648 53.2398 6.288C52.9038 5.904 52.5198 5.712 52.0878 5.712H42.5478C42.1158 5.712 41.7318 5.904 41.3958 6.288C41.0598 6.648 40.8918 7.116 40.8918 7.692V16.476C40.8918 17.052 41.0598 17.532 41.3958 17.916C41.7318 18.276 42.1158 18.456 42.5478 18.456H52.0878C52.5198 18.456 52.9038 18.276 53.2398 17.916C53.5758 17.532 53.7438 17.052 53.7438 16.476V7.692ZM88.4247 0.167998H91.0167C91.5207 0.167998 91.9407 0.347998 92.2767 0.707999C92.6367 1.044 92.8167 1.464 92.8167 1.968V16.764C92.8167 18.852 92.0487 20.58 90.5127 21.948C89.0007 23.316 87.1527 24 84.9687 24H75.3927C73.2087 24 71.3487 23.316 69.8127 21.948C68.3007 20.58 67.5447 18.852 67.5447 16.764V12.192C67.5447 10.104 68.3007 8.376 69.8127 7.008C71.3487 5.64 73.2087 4.956 75.3927 4.956H86.6247V1.968C86.6247 1.464 86.7927 1.044 87.1287 0.707999C87.4887 0.347998 87.9207 0.167998 88.4247 0.167998ZM86.6247 10.5H75.3927C74.2887 10.5 73.7367 11.04 73.7367 12.12V16.836C73.7367 17.892 74.2887 18.42 75.3927 18.42H84.9687C86.0727 18.42 86.6247 17.892 86.6247 16.836V10.5ZM118.885 15.216H107.653L107.689 16.476C107.689 17.052 107.857 17.532 108.193 17.916C108.529 18.276 108.913 18.456 109.345 18.456H120.325C120.781 18.456 121.165 18.612 121.477 18.924C121.813 19.236 121.981 19.62 121.981 20.076V22.38C121.981 22.836 121.813 23.22 121.477 23.532C121.165 23.844 120.781 24 120.325 24H109.345C107.161 24 105.301 23.268 103.765 21.804C102.229 20.34 101.461 18.564 101.461 16.476V7.692C101.461 5.604 102.229 3.828 103.765 2.364C105.301 0.899998 107.161 0.167998 109.345 0.167998H118.885C121.045 0.167998 122.893 0.899998 124.429 2.364C125.989 3.828 126.769 5.604 126.769 7.692C126.769 9.78 125.989 11.556 124.429 13.02C122.893 14.484 121.045 15.216 118.885 15.216ZM118.885 5.712H109.345C108.913 5.712 108.529 5.904 108.193 6.288C107.857 6.648 107.689 7.116 107.689 7.692L107.653 9.636H118.885C119.317 9.636 119.701 9.456 120.037 9.096C120.373 8.736 120.541 8.268 120.541 7.692C120.541 7.116 120.373 6.648 120.037 6.288C119.701 5.904 119.317 5.712 118.885 5.712ZM157.596 13.128H154.752C154.272 13.128 153.864 12.972 153.528 12.66C153.216 12.348 153.06 11.964 153.06 11.508V7.692C153.06 7.116 152.892 6.648 152.556 6.288C152.22 5.904 151.836 5.712 151.404 5.712H141.864C141.432 5.712 141.048 5.904 140.712 6.288C140.376 6.648 140.208 7.116 140.208 7.692V22.38C140.208 22.836 140.04 23.22 139.704 23.532C139.368 23.844 138.972 24 138.516 24H135.672C135.192 24 134.784 23.844 134.448 23.532C134.136 23.22 133.98 22.836 133.98 22.38V7.692C133.98 5.604 134.748 3.828 136.284 2.364C137.82 0.899998 139.68 0.167998 141.864 0.167998H151.404C153.564 0.167998 155.412 0.899998 156.948 2.364C158.508 3.828 159.288 5.604 159.288 7.692V11.508C159.288 11.964 159.12 12.348 158.784 12.66C158.448 12.972 158.052 13.128 157.596 13.128ZM189.026 24H186.182C185.702 24 185.294 23.844 184.958 23.532C184.646 23.22 184.49 22.836 184.49 22.38V7.692C184.49 7.116 184.322 6.648 183.986 6.288C183.65 5.904 183.266 5.712 182.834 5.712H173.294C172.862 5.712 172.478 5.904 172.142 6.288C171.806 6.648 171.638 7.116 171.638 7.692V22.38C171.638 22.836 171.47 23.22 171.134 23.532C170.798 23.844 170.402 24 169.946 24H167.102C166.622 24 166.214 23.844 165.878 23.532C165.566 23.22 165.41 22.836 165.41 22.38V7.692C165.41 5.628 166.178 3.864 167.714 2.4C169.274 0.911998 171.134 0.167998 173.294 0.167998H182.834C184.994 0.167998 186.842 0.899998 188.378 2.364C189.938 3.804 190.718 5.556 190.718 7.62V22.38C190.718 22.836 190.55 23.22 190.214 23.532C189.878 23.844 189.482 24 189.026 24ZM30.102 52H27.222C26.766 52 26.37 51.844 26.034 51.532C25.722 51.22 25.566 50.836 25.566 50.38V37.672L20.418 43.648C20.106 44.032 19.686 44.224 19.158 44.224C18.63 44.224 18.198 44.02 17.862 43.612L12.678 37.672V50.38C12.678 50.836 12.51 51.22 12.174 51.532C11.862 51.844 11.466 52 10.986 52H8.17802C7.69802 52 7.29002 51.844 6.95402 51.532C6.64202 51.22 6.48602 50.836 6.48602 50.38V29.788C6.48602 29.332 6.64202 28.948 6.95402 28.636C7.29002 28.324 7.69802 28.168 8.17802 28.168H11.49C12.018 28.168 12.462 28.372 12.822 28.78L19.158 36.052L25.458 28.78C25.794 28.372 26.226 28.168 26.754 28.168H30.102C30.558 28.168 30.942 28.324 31.254 28.636C31.59 28.948 31.758 29.332 31.758 29.788V50.38C31.758 50.836 31.59 51.22 31.254 51.532C30.942 51.844 30.558 52 30.102 52ZM57.8358 52H48.2958C46.1358 52 44.2758 51.28 42.7158 49.84C41.1798 48.376 40.4118 46.612 40.4118 44.548V29.788C40.4118 29.332 40.5678 28.948 40.8798 28.636C41.2158 28.324 41.6238 28.168 42.1038 28.168H44.9478C45.4038 28.168 45.7998 28.324 46.1358 28.636C46.4718 28.948 46.6398 29.332 46.6398 29.788V44.476C46.6398 45.052 46.8078 45.532 47.1438 45.916C47.4798 46.276 47.8638 46.456 48.2958 46.456H57.8358C58.2918 46.456 58.6878 46.276 59.0238 45.916C59.3598 45.532 59.5278 45.052 59.5278 44.476V29.788C59.5278 29.332 59.6838 28.948 59.9958 28.636C60.3318 28.324 60.7278 28.168 61.1838 28.168H64.0638C64.5198 28.168 64.9038 28.324 65.2158 28.636C65.5518 28.948 65.7198 29.332 65.7198 29.788V44.548C65.7198 46.612 64.9518 48.376 63.4158 49.84C61.8798 51.28 60.0198 52 57.8358 52ZM97.9887 41.128H95.1447C94.6647 41.128 94.2567 40.972 93.9207 40.66C93.6087 40.348 93.4527 39.964 93.4527 39.508V35.692C93.4527 35.116 93.2847 34.648 92.9487 34.288C92.6127 33.904 92.2287 33.712 91.7967 33.712H82.2567C81.8247 33.712 81.4407 33.904 81.1047 34.288C80.7687 34.648 80.6007 35.116 80.6007 35.692V50.38C80.6007 50.836 80.4327 51.22 80.0967 51.532C79.7607 51.844 79.3647 52 78.9087 52H76.0647C75.5847 52 75.1767 51.844 74.8407 51.532C74.5287 51.22 74.3727 50.836 74.3727 50.38V35.692C74.3727 33.604 75.1407 31.828 76.6767 30.364C78.2127 28.9 80.0727 28.168 82.2567 28.168H91.7967C93.9567 28.168 95.8047 28.9 97.3407 30.364C98.9007 31.828 99.6807 33.604 99.6807 35.692V39.508C99.6807 39.964 99.5127 40.348 99.1767 40.66C98.8407 40.972 98.4447 41.128 97.9887 41.128ZM129.418 52H126.574C126.094 52 125.686 51.844 125.35 51.532C125.038 51.22 124.882 50.836 124.882 50.38V35.224C124.882 34.648 124.714 34.18 124.378 33.82C124.042 33.46 123.658 33.28 123.226 33.28C122.794 33.28 122.41 33.46 122.074 33.82C121.738 34.18 121.57 34.648 121.57 35.224V41.2C121.57 41.656 121.402 42.04 121.066 42.352C120.73 42.664 120.334 42.82 119.878 42.82H117.034C116.554 42.82 116.146 42.664 115.81 42.352C115.498 42.04 115.342 41.656 115.342 41.2V35.224C115.342 34.648 115.174 34.18 114.838 33.82C114.502 33.46 114.118 33.28 113.686 33.28C113.254 33.28 112.87 33.46 112.534 33.82C112.198 34.18 112.03 34.648 112.03 35.224V50.38C112.03 50.836 111.862 51.22 111.526 51.532C111.19 51.844 110.794 52 110.338 52H107.494C107.014 52 106.606 51.844 106.27 51.532C105.958 51.22 105.802 50.836 105.802 50.38V35.224C105.802 33.136 106.57 31.36 108.106 29.896C109.642 28.432 111.502 27.7 113.686 27.7C115.462 27.7 117.046 28.216 118.438 29.248C119.854 28.216 121.45 27.7 123.226 27.7C125.386 27.7 127.234 28.432 128.77 29.896C130.33 31.36 131.11 33.136 131.11 35.224V50.38C131.11 50.836 130.942 51.22 130.606 51.532C130.27 51.844 129.874 52 129.418 52ZM157.187 52H147.647C145.487 52 143.627 51.28 142.067 49.84C140.531 48.376 139.763 46.612 139.763 44.548V29.788C139.763 29.332 139.919 28.948 140.231 28.636C140.567 28.324 140.975 28.168 141.455 28.168H144.299C144.755 28.168 145.151 28.324 145.487 28.636C145.823 28.948 145.991 29.332 145.991 29.788V44.476C145.991 45.052 146.159 45.532 146.495 45.916C146.831 46.276 147.215 46.456 147.647 46.456H157.187C157.643 46.456 158.039 46.276 158.375 45.916C158.711 45.532 158.879 45.052 158.879 44.476V29.788C158.879 29.332 159.035 28.948 159.347 28.636C159.683 28.324 160.079 28.168 160.535 28.168H163.415C163.871 28.168 164.255 28.324 164.567 28.636C164.903 28.948 165.071 29.332 165.071 29.788V44.548C165.071 46.612 164.303 48.376 162.767 49.84C161.231 51.28 159.371 52 157.187 52ZM197.34 41.128H194.496C194.016 41.128 193.608 40.972 193.272 40.66C192.96 40.348 192.804 39.964 192.804 39.508V35.692C192.804 35.116 192.636 34.648 192.3 34.288C191.964 33.904 191.58 33.712 191.148 33.712H181.608C181.176 33.712 180.792 33.904 180.456 34.288C180.12 34.648 179.952 35.116 179.952 35.692V50.38C179.952 50.836 179.784 51.22 179.448 51.532C179.112 51.844 178.716 52 178.26 52H175.416C174.936 52 174.528 51.844 174.192 51.532C173.88 51.22 173.724 50.836 173.724 50.38V35.692C173.724 33.604 174.492 31.828 176.028 30.364C177.564 28.9 179.424 28.168 181.608 28.168H191.148C193.308 28.168 195.156 28.9 196.692 30.364C198.252 31.828 199.032 33.604 199.032 35.692V39.508C199.032 39.964 198.864 40.348 198.528 40.66C198.192 40.972 197.796 41.128 197.34 41.128Z" fill="#E6FAFC"/>
</svg>
