<svg width="75" height="28" viewBox="0 0 75 28" fill="none" xmlns="http://www.w3.org/2000/svg">
<g filter="url(#filter0_d_6_4)">
<path d="M12.3411 7.676C12.3411 7.892 12.2371 8 12.0291 8H11.0691C10.8611 8 10.7571 7.892 10.7571 7.676V2.42L8.60906 4.976C8.54506 5.048 8.46506 5.084 8.36906 5.084C8.27306 5.084 8.18906 5.044 8.11706 4.964L5.98106 2.42V7.676C5.98106 7.892 5.87706 8 5.66906 8H4.70906C4.50106 8 4.39706 7.892 4.39706 7.676V0.368C4.39706 0.151999 4.50106 0.0439994 4.70906 0.0439994H5.83706C5.93306 0.0439994 6.01706 0.0879996 6.08906 0.176L8.36906 2.888L10.6491 0.176C10.7211 0.0879996 10.8051 0.0439994 10.9011 0.0439994H12.0291C12.2371 0.0439994 12.3411 0.151999 12.3411 0.368V7.676ZM23.4973 5.66C23.4973 6.308 23.2653 6.86 22.8013 7.316C22.3373 7.772 21.7773 8 21.1213 8H17.9293C17.2733 8 16.7133 7.772 16.2493 7.316C15.7853 6.86 15.5533 6.308 15.5533 5.66V2.372C15.5533 1.732 15.7853 1.184 16.2493 0.728C16.7133 0.272 17.2733 0.0439994 17.9293 0.0439994H21.1213C21.7773 0.0439994 22.3373 0.272 22.8013 0.728C23.2653 1.184 23.4973 1.732 23.4973 2.372V5.66ZM21.9133 5.66V2.396C21.9133 2.14 21.8333 1.924 21.6733 1.748C21.5213 1.572 21.3373 1.484 21.1213 1.484H17.9293C17.7133 1.484 17.5253 1.572 17.3653 1.748C17.2133 1.924 17.1373 2.14 17.1373 2.396V5.66C17.1373 5.908 17.2133 6.124 17.3653 6.308C17.5253 6.484 17.7133 6.572 17.9293 6.572H21.1213C21.3373 6.572 21.5213 6.484 21.6733 6.308C21.8333 6.124 21.9133 5.908 21.9133 5.66ZM34.4616 5.756C34.4616 6.396 34.2296 6.932 33.7656 7.364C33.3096 7.788 32.7496 8 32.0856 8H28.9176C28.2536 8 27.6896 7.788 27.2256 7.364C26.7696 6.932 26.5416 6.396 26.5416 5.756V4.04C26.5416 3.4 26.7696 2.868 27.2256 2.444C27.6896 2.012 28.2536 1.796 28.9176 1.796H32.8776V0.344C32.8776 0.168 33.0096 0.0799997 33.2736 0.0799997H34.1976C34.3736 0.0799997 34.4616 0.168 34.4616 0.344V5.756ZM32.8776 5.756V3.512C32.8776 3.336 32.7896 3.248 32.6136 3.248H28.9176C28.6936 3.248 28.5056 3.32 28.3536 3.464C28.2016 3.6 28.1256 3.792 28.1256 4.04V5.756C28.1256 6.004 28.2016 6.2 28.3536 6.344C28.5056 6.48 28.6936 6.548 28.9176 6.548H32.0856C32.3096 6.548 32.4976 6.48 32.6496 6.344C32.8016 6.2 32.8776 6.004 32.8776 5.756ZM45.6106 2.396C45.6106 3.044 45.3746 3.596 44.9026 4.052C44.4386 4.508 43.8786 4.736 43.2226 4.736H39.5626C39.3546 4.736 39.2506 4.844 39.2506 5.06V5.66C39.2506 5.908 39.3266 6.124 39.4786 6.308C39.6306 6.484 39.8186 6.572 40.0426 6.572H43.7026C43.9106 6.572 44.0146 6.676 44.0146 6.884V7.676C44.0146 7.892 43.9106 8 43.7026 8H40.0426C39.3786 8 38.8146 7.772 38.3506 7.316C37.8866 6.86 37.6546 6.308 37.6546 5.66V2.396C37.6546 1.748 37.8866 1.196 38.3506 0.74C38.8146 0.276 39.3786 0.0439994 40.0426 0.0439994H43.2226C43.8786 0.0439994 44.4386 0.276 44.9026 0.74C45.3746 1.196 45.6106 1.748 45.6106 2.396ZM44.0146 2.396C44.0146 2.14 43.9346 1.924 43.7746 1.748C43.6226 1.572 43.4386 1.484 43.2226 1.484H40.0426C39.8186 1.484 39.6306 1.572 39.4786 1.748C39.3266 1.924 39.2506 2.14 39.2506 2.396V2.996C39.2506 3.204 39.3546 3.308 39.5626 3.308H43.2226C43.4386 3.308 43.6226 3.22 43.7746 3.044C43.9346 2.86 44.0146 2.644 44.0146 2.396ZM56.3684 3.704C56.3684 3.92 56.2604 4.028 56.0444 4.028H55.0964C54.8804 4.028 54.7724 3.92 54.7724 3.704V2.396C54.7724 2.14 54.6924 1.924 54.5324 1.748C54.3804 1.572 54.1964 1.484 53.9804 1.484H50.8004C50.5764 1.484 50.3884 1.572 50.2364 1.748C50.0844 1.924 50.0084 2.14 50.0084 2.396V7.676C50.0084 7.892 49.9004 8 49.6844 8H48.7364C48.5204 8 48.4124 7.892 48.4124 7.676V2.396C48.4124 1.748 48.6444 1.196 49.1084 0.74C49.5724 0.276 50.1364 0.0439994 50.8004 0.0439994H53.9804C54.6364 0.0439994 55.1964 0.276 55.6604 0.74C56.1324 1.196 56.3684 1.748 56.3684 2.396V3.704ZM66.7629 7.676C66.7629 7.892 66.6589 8 66.4509 8H65.4909C65.2829 8 65.1789 7.892 65.1789 7.676V2.396C65.1789 2.14 65.0989 1.924 64.9389 1.748C64.7869 1.572 64.6029 1.484 64.3869 1.484H61.1949C60.9789 1.484 60.7909 1.572 60.6309 1.748C60.4789 1.924 60.4029 2.14 60.4029 2.396V7.676C60.4029 7.892 60.2989 8 60.0909 8H59.1309C58.9229 8 58.8189 7.892 58.8189 7.676V2.372C58.8189 1.732 59.0509 1.184 59.5149 0.728C59.9789 0.272 60.5389 0.0439994 61.1949 0.0439994H64.3869C65.0429 0.0439994 65.6029 0.272 66.0669 0.728C66.5309 1.184 66.7629 1.732 66.7629 2.372V7.676ZM13.7007 20H12.7407C12.5887 20 12.4567 19.948 12.3447 19.844C12.2407 19.74 12.1887 19.612 12.1887 19.46V15.224L10.4727 17.216C10.3687 17.344 10.2287 17.408 10.0527 17.408C9.87667 17.408 9.73267 17.34 9.62067 17.204L7.89267 15.224V19.46C7.89267 19.612 7.83667 19.74 7.72467 19.844C7.62067 19.948 7.48867 20 7.32867 20H6.39267C6.23267 20 6.09667 19.948 5.98467 19.844C5.88067 19.74 5.82867 19.612 5.82867 19.46V12.596C5.82867 12.444 5.88067 12.316 5.98467 12.212C6.09667 12.108 6.23267 12.056 6.39267 12.056H7.49667C7.67267 12.056 7.82067 12.124 7.94067 12.26L10.0527 14.684L12.1527 12.26C12.2647 12.124 12.4087 12.056 12.5847 12.056H13.7007C13.8527 12.056 13.9807 12.108 14.0847 12.212C14.1967 12.316 14.2527 12.444 14.2527 12.596V19.46C14.2527 19.612 14.1967 19.74 14.0847 19.844C13.9807 19.948 13.8527 20 13.7007 20ZM22.9453 20H19.7653C19.0453 20 18.4253 19.76 17.9053 19.28C17.3933 18.792 17.1373 18.204 17.1373 17.516V12.596C17.1373 12.444 17.1893 12.316 17.2933 12.212C17.4053 12.108 17.5413 12.056 17.7013 12.056H18.6493C18.8013 12.056 18.9333 12.108 19.0453 12.212C19.1573 12.316 19.2133 12.444 19.2133 12.596V17.492C19.2133 17.684 19.2693 17.844 19.3813 17.972C19.4933 18.092 19.6213 18.152 19.7653 18.152H22.9453C23.0973 18.152 23.2293 18.092 23.3413 17.972C23.4533 17.844 23.5093 17.684 23.5093 17.492V12.596C23.5093 12.444 23.5613 12.316 23.6653 12.212C23.7773 12.108 23.9093 12.056 24.0613 12.056H25.0213C25.1733 12.056 25.3013 12.108 25.4053 12.212C25.5173 12.316 25.5733 12.444 25.5733 12.596V17.516C25.5733 18.204 25.3173 18.792 24.8053 19.28C24.2933 19.76 23.6733 20 22.9453 20ZM36.3296 16.376H35.3816C35.2216 16.376 35.0856 16.324 34.9736 16.22C34.8696 16.116 34.8176 15.988 34.8176 15.836V14.564C34.8176 14.372 34.7616 14.216 34.6496 14.096C34.5376 13.968 34.4096 13.904 34.2656 13.904H31.0856C30.9416 13.904 30.8136 13.968 30.7016 14.096C30.5896 14.216 30.5336 14.372 30.5336 14.564V19.46C30.5336 19.612 30.4776 19.74 30.3656 19.844C30.2536 19.948 30.1216 20 29.9696 20H29.0216C28.8616 20 28.7256 19.948 28.6136 19.844C28.5096 19.74 28.4576 19.612 28.4576 19.46V14.564C28.4576 13.868 28.7136 13.276 29.2256 12.788C29.7376 12.3 30.3576 12.056 31.0856 12.056H34.2656C34.9856 12.056 35.6016 12.3 36.1136 12.788C36.6336 13.276 36.8936 13.868 36.8936 14.564V15.836C36.8936 15.988 36.8376 16.116 36.7256 16.22C36.6136 16.324 36.4816 16.376 36.3296 16.376ZM46.8061 20H45.8581C45.6981 20 45.5621 19.948 45.4501 19.844C45.3461 19.74 45.2941 19.612 45.2941 19.46V14.408C45.2941 14.216 45.2381 14.06 45.1261 13.94C45.0141 13.82 44.8861 13.76 44.7421 13.76C44.5981 13.76 44.4701 13.82 44.3581 13.94C44.2461 14.06 44.1901 14.216 44.1901 14.408V16.4C44.1901 16.552 44.1341 16.68 44.0221 16.784C43.9101 16.888 43.7781 16.94 43.6261 16.94H42.6781C42.5181 16.94 42.3821 16.888 42.2701 16.784C42.1661 16.68 42.1141 16.552 42.1141 16.4V14.408C42.1141 14.216 42.0581 14.06 41.9461 13.94C41.8341 13.82 41.7061 13.76 41.5621 13.76C41.4181 13.76 41.2901 13.82 41.1781 13.94C41.0661 14.06 41.0101 14.216 41.0101 14.408V19.46C41.0101 19.612 40.9541 19.74 40.8421 19.844C40.7301 19.948 40.5981 20 40.4461 20H39.4981C39.3381 20 39.2021 19.948 39.0901 19.844C38.9861 19.74 38.9341 19.612 38.9341 19.46V14.408C38.9341 13.712 39.1901 13.12 39.7021 12.632C40.2141 12.144 40.8341 11.9 41.5621 11.9C42.1541 11.9 42.6821 12.072 43.1461 12.416C43.6181 12.072 44.1501 11.9 44.7421 11.9C45.4621 11.9 46.0781 12.144 46.5901 12.632C47.1101 13.12 47.3701 13.712 47.3701 14.408V19.46C47.3701 19.612 47.3141 19.74 47.2021 19.844C47.0901 19.948 46.9581 20 46.8061 20ZM56.0625 20H52.8825C52.1625 20 51.5425 19.76 51.0225 19.28C50.5105 18.792 50.2545 18.204 50.2545 17.516V12.596C50.2545 12.444 50.3065 12.316 50.4105 12.212C50.5225 12.108 50.6585 12.056 50.8185 12.056H51.7665C51.9185 12.056 52.0505 12.108 52.1625 12.212C52.2745 12.316 52.3305 12.444 52.3305 12.596V17.492C52.3305 17.684 52.3865 17.844 52.4985 17.972C52.6105 18.092 52.7385 18.152 52.8825 18.152H56.0625C56.2145 18.152 56.3465 18.092 56.4585 17.972C56.5705 17.844 56.6265 17.684 56.6265 17.492V12.596C56.6265 12.444 56.6785 12.316 56.7825 12.212C56.8945 12.108 57.0265 12.056 57.1785 12.056H58.1385C58.2905 12.056 58.4185 12.108 58.5225 12.212C58.6345 12.316 58.6905 12.444 58.6905 12.596V17.516C58.6905 18.204 58.4345 18.792 57.9225 19.28C57.4105 19.76 56.7905 20 56.0625 20ZM69.4468 16.376H68.4988C68.3388 16.376 68.2028 16.324 68.0908 16.22C67.9868 16.116 67.9348 15.988 67.9348 15.836V14.564C67.9348 14.372 67.8788 14.216 67.7668 14.096C67.6548 13.968 67.5268 13.904 67.3828 13.904H64.2028C64.0588 13.904 63.9308 13.968 63.8188 14.096C63.7068 14.216 63.6508 14.372 63.6508 14.564V19.46C63.6508 19.612 63.5948 19.74 63.4828 19.844C63.3708 19.948 63.2388 20 63.0868 20H62.1388C61.9788 20 61.8428 19.948 61.7308 19.844C61.6268 19.74 61.5748 19.612 61.5748 19.46V14.564C61.5748 13.868 61.8308 13.276 62.3428 12.788C62.8548 12.3 63.4748 12.056 64.2028 12.056H67.3828C68.1028 12.056 68.7188 12.3 69.2308 12.788C69.7508 13.276 70.0108 13.868 70.0108 14.564V15.836C70.0108 15.988 69.9548 16.116 69.8428 16.22C69.7308 16.324 69.5988 16.376 69.4468 16.376Z" fill="#736A3D"/>
</g>
<defs>
<filter id="filter0_d_6_4" x="0.397064" y="0.0440063" width="73.6137" height="27.956" filterUnits="userSpaceOnUse" color-interpolation-filters="sRGB">
<feFlood flood-opacity="0" result="BackgroundImageFix"/>
<feColorMatrix in="SourceAlpha" type="matrix" values="0 0 0 0 0 0 0 0 0 0 0 0 0 0 0 0 0 0 127 0" result="hardAlpha"/>
<feOffset dy="4"/>
<feGaussianBlur stdDeviation="2"/>
<feComposite in2="hardAlpha" operator="out"/>
<feColorMatrix type="matrix" values="0 0 0 0 0 0 0 0 0 0 0 0 0 0 0 0 0 0 0.25 0"/>
<feBlend mode="normal" in2="BackgroundImageFix" result="effect1_dropShadow_6_4"/>
<feBlend mode="normal" in="SourceGraphic" in2="effect1_dropShadow_6_4" result="shape"/>
</filter>
</defs>
</svg>
